<svg width="500" height="323" viewBox="0 0 500 323" fill="none" xmlns="http://www.w3.org/2000/svg">
<g clip-path="url(#clip0_335_34)">
<path d="M320.865 248.737C306.026 248.48 298.43 241.282 294.568 228.863C291.329 218.409 289.763 207.395 287.354 196.659C285.337 187.61 287.798 182.205 297.234 178.33C313.128 171.824 325.583 160.653 335.037 144.374C319.337 154.607 285.955 179.743 285.435 173.156C285.435 150.555 298.187 124.18 305.083 102.189C268.649 152.109 259.666 185.337 286.034 243.527C280.017 242.053 277.216 244.685 275.707 243.352C261.291 230.626 246.537 245.895 231.738 256.42C229.877 257.737 230.454 266.63 231.128 266.771C245.669 270.154 260.279 274.013 275.071 275.225C290.542 276.504 306.313 276.225 321.726 274.523C334.547 273.121 347.017 268.649 361.558 265.087C349.421 247.85 334.214 248.937 320.865 248.737Z" fill="#834C1F"/>
<path d="M345.649 122.558C337.563 127.281 332.776 134.905 332.933 141.619C332.969 143.69 350.121 135.956 351.156 137.714C352.402 139.846 337.633 151.181 339.88 152.27C345.631 155.066 354.05 154.392 361.664 149.971C372.204 143.808 381.081 120.251 381.081 120.251C381.081 120.251 356.207 116.404 345.649 122.558ZM334.547 109.19C338.855 111.274 345.159 110.769 350.859 107.458C358.752 102.85 365.4 85.203 365.4 85.203C365.4 85.203 346.771 82.3174 338.863 86.9175C332.812 90.4746 329.214 96.1741 329.337 101.205C329.373 102.76 342.212 96.9609 342.984 98.2884C343.917 99.885 332.846 108.365 334.547 109.19ZM371.82 89.4777C367.243 92.1609 364.541 96.4714 364.629 100.269C364.647 101.448 374.344 97.0737 374.933 98.0731C375.633 99.275 367.261 105.695 368.55 106.307C371.812 107.886 376.574 107.509 380.882 104.995C386.845 101.517 391.871 88.1835 391.871 88.1835C391.871 88.1835 377.801 85.9923 371.82 89.4777ZM385.274 130.564C384.902 131.248 391.799 131.904 391.817 132.66C391.817 133.572 385.031 134.487 385.556 135.251C386.873 137.193 389.695 138.513 392.939 138.498C397.432 138.449 404.551 132.552 404.551 132.552C404.551 132.552 397.324 126.755 392.832 126.801C389.38 126.837 386.448 128.411 385.274 130.564ZM402.778 100.677C399.113 101.366 396.307 103.568 395.464 106.102C395.197 106.892 402.655 106.292 402.811 107.099C402.985 108.05 395.935 110.313 396.63 111.033C398.4 112.84 401.655 113.734 405.084 113.091C409.846 112.199 416.327 104.588 416.327 104.588C416.327 104.588 407.552 99.7799 402.778 100.677ZM310.391 131.335C313.643 132.926 318.412 132.542 322.725 130.028C328.689 126.543 333.704 113.206 333.704 113.206C333.704 113.206 319.64 111.023 313.658 114.505C309.079 117.194 306.377 121.502 306.47 125.3C306.488 126.473 316.183 122.101 316.777 123.098C317.482 124.305 309.117 130.717 310.391 131.335ZM333.617 74.0397C334.004 75.1443 341.861 67.9711 342.74 68.7528C343.791 69.6677 337.81 78.3605 339.214 78.5399C342.809 79.0524 347.23 77.2201 350.546 73.4836C355.141 68.3402 355.79 54.1144 355.79 54.1144C355.79 54.1144 341.723 56.3696 337.128 61.531C333.599 65.5109 332.356 70.4493 333.617 74.0397ZM379.364 68.7502C380.397 69.6651 374.434 78.3579 375.838 78.5373C379.423 79.0499 383.854 77.2175 387.171 73.481C391.748 68.3376 392.396 54.1118 392.396 54.1118C392.396 54.1118 378.329 56.3747 373.734 61.5361C370.226 65.5083 368.983 70.4544 370.226 74.0474C370.61 75.1443 378.485 67.9711 379.364 68.7502ZM334.319 44.2248C335.37 45.1499 329.388 53.8325 330.785 54.0298C334.378 54.5347 338.809 52.6921 342.125 48.9735C346.72 43.8224 347.369 29.589 347.369 29.589C347.369 29.589 333.302 31.8519 328.707 37.0132C325.173 40.9778 323.937 45.9239 325.198 49.5143C325.585 50.6086 333.443 43.4431 334.319 44.2248ZM304.338 48.256C305.76 48.9556 306.583 34.7042 308.128 34.6273C310.004 34.5274 312.413 48.4764 313.956 47.3231C317.851 44.4503 320.375 38.5304 320.042 31.8519C319.64 22.6157 306.918 8.36432 306.918 8.36432C306.918 8.36432 295.545 23.7305 295.988 33C296.326 40.1039 299.786 46.0033 304.338 48.256ZM295.081 77.8351C296.239 78.117 294.532 67.6098 295.655 67.3023C296.985 66.9332 301.006 76.687 301.911 75.6209C304.317 72.8711 305.173 68.1839 303.897 63.3685C302.09 56.7079 290.532 48.3713 290.532 48.3713C290.532 48.3713 284.74 61.3875 286.555 68.0557C287.939 73.1812 291.398 76.9254 295.081 77.8351ZM232.916 86.9534C237.937 88.6679 242.968 87.8862 245.794 85.3388C246.658 84.5444 236.994 80.0827 237.371 78.9807C237.814 77.6609 248.142 79.7879 247.755 78.4246C246.84 74.9111 243.426 71.5539 238.719 69.9521C232.171 67.7072 218.809 72.6482 218.809 72.6482C218.809 72.6482 226.376 84.7264 232.916 86.9534ZM200.049 73.7553C205.07 75.462 210.095 74.6881 212.927 72.1382C213.778 71.3488 204.134 66.8845 204.503 65.7723C204.942 64.4525 215.269 66.5975 214.9 65.2239C213.957 61.7206 210.554 58.3711 205.859 56.7566C199.311 54.5193 185.947 59.45 185.947 59.45C185.947 59.45 193.494 71.5257 200.049 73.7553ZM232.547 139.715C233.114 138.675 222.519 137.657 222.519 136.484C222.484 135.089 232.955 133.69 232.145 132.542C230.105 129.544 225.779 127.493 220.797 127.529C213.883 127.573 202.889 136.648 202.889 136.648C202.889 136.648 214.006 145.548 220.92 145.497C226.238 145.44 230.728 143.057 232.547 139.715ZM217.658 104.77C218.224 103.75 207.625 102.717 207.609 101.556C207.591 100.159 218.045 98.7625 217.238 97.6144C215.198 94.598 210.887 92.5581 205.903 92.594C198.988 92.6427 187.994 101.712 187.994 101.712C187.994 101.712 199.114 110.615 206.031 110.549C211.328 110.51 215.836 108.111 217.658 104.77ZM243.624 60.6955C244.797 60.5956 239.78 51.2211 240.746 50.5573C241.886 49.7552 248.849 57.6971 249.359 56.3773C250.745 53.0099 250.025 48.2842 247.24 44.153C243.36 38.4355 229.734 34.3377 229.734 34.3377C229.734 34.3377 228.488 48.5199 232.386 54.2297C235.341 58.6299 239.831 61.0569 243.624 60.6955ZM275.204 60.6955C276.383 60.5956 271.363 51.2211 272.331 50.5573C273.472 49.7552 280.43 57.6971 280.942 56.3773C282.306 53.0099 281.609 48.2842 278.825 44.153C274.945 38.4355 261.319 34.3377 261.319 34.3377C261.319 34.3377 260.074 48.5199 263.967 54.2297C266.927 58.6299 271.417 61.0569 275.204 60.6955ZM305.75 79.5214C304.466 86.4229 306.47 92.8836 310.347 96.0716C311.544 97.0583 315.534 83.5526 317.041 83.8294C318.848 84.1702 318.058 98.1013 319.786 97.3479C324.181 95.454 327.917 90.349 329.135 83.8601C330.826 74.888 321.785 58.325 321.785 58.325C321.785 58.325 307.431 70.5313 305.75 79.5214ZM267.644 93.3039C271.732 99.0162 277.764 102.079 282.752 101.494C284.276 101.325 277.326 89.0548 278.595 88.1681C280.081 87.0995 289.558 97.3453 290.225 95.5744C291.913 91.0999 290.817 84.8699 286.998 79.4907C281.701 72.0587 263.534 67.0537 263.534 67.0537C263.534 67.0537 262.339 85.8565 267.644 93.3039ZM249.674 130.028C258.672 131.033 266.829 127.888 270.563 122.591C271.739 120.971 253.967 117.055 254.18 115.082C254.438 112.709 272.457 112.468 271.335 110.313C268.498 104.834 261.565 100.49 253.093 99.5262C241.394 98.1961 220.905 111.348 220.905 111.348C220.905 111.348 237.952 128.703 249.674 130.028ZM271.355 143.967C269.428 140.235 264.725 137.298 258.972 136.637C251.004 135.73 237.078 144.689 237.078 144.689C237.078 144.689 248.652 156.478 256.637 157.37C262.744 158.064 268.282 155.93 270.827 152.316C271.616 151.219 259.549 148.546 259.689 147.214C259.856 145.609 272.108 145.44 271.355 143.967Z" fill="#834C1F"/>
</g>
<path d="M68.6134 286.085V322.026H0V286.085H19.7059V195.52H0V159.579H87.6047L119.155 237.79L150.398 159.579H232.081V195.52H212.477V286.085H232.081V322.026H147.029V286.085H160.2V225.436L124.26 322.026H94.7519L52.2769 223.088V286.085H68.6134Z" fill="#1565C0"/>
<path d="M333.776 286.085V322.026H248.928V286.085H265.264V220.613H248.928V184.672H333.776V220.613H317.541V286.085H333.776Z" fill="#1565C0"/>
<path d="M468.858 285.269V322.026H377.884V285.269H394.629V195.52H380.233L375.842 223.496H347.151V159.579H500V223.496H471.411L467.021 195.52H452.114V285.269H468.858Z" fill="#1565C0"/>
<defs>
<clipPath id="clip0_335_34">
<rect width="230.018" height="225.836" fill="white" transform="translate(185.947)"/>
</clipPath>
</defs>
</svg>
