<svg width="231" height="226" viewBox="0 0 231 226" fill="none" xmlns="http://www.w3.org/2000/svg">
<g clip-path="url(#clip0_335_43)">
<path d="M138.261 236.101C123.771 235.858 116.354 229.025 112.582 217.237C109.419 207.315 107.89 196.86 105.537 186.67C103.568 178.081 105.97 172.951 115.185 169.273C130.706 163.096 142.869 152.493 152.101 137.042C136.77 146.755 104.171 170.613 103.663 164.361C103.663 142.909 116.116 117.873 122.85 97C87.2709 144.383 78.4993 175.923 104.249 231.156C98.3724 229.757 95.6371 232.255 94.163 230.99C80.0859 218.911 65.6785 233.404 51.226 243.394C49.4091 244.644 49.9722 253.085 50.6304 253.219C64.8301 256.43 79.0974 260.093 93.5424 261.244C108.651 262.458 124.052 262.192 139.102 260.577C151.623 259.247 163.8 255.002 178 251.621C166.148 235.26 151.297 236.291 138.261 236.101Z" fill="#834C1F"/>
<path d="M161.586 116.729C153.76 121.226 149.126 128.486 149.277 134.879C149.312 136.85 165.915 129.486 166.917 131.16C168.123 133.19 153.827 143.983 156.002 145.02C161.569 147.682 169.718 147.04 177.088 142.831C187.291 136.963 195.884 114.533 195.884 114.533C195.884 114.533 171.807 110.87 161.586 116.729ZM150.84 104.002C155.01 105.985 161.113 105.505 166.629 102.352C174.27 97.9647 180.705 81.1621 180.705 81.1621C180.705 81.1621 162.673 78.4145 155.018 82.7945C149.161 86.1814 145.678 91.6082 145.797 96.3982C145.832 97.8793 158.26 92.3573 159.006 93.6213C159.909 95.1415 149.193 103.216 150.84 104.002ZM186.919 85.2322C182.488 87.787 179.874 91.8913 179.958 95.5075C179.975 96.63 189.362 92.4647 189.933 93.4163C190.61 94.5607 182.506 100.673 183.753 101.256C186.911 102.76 191.52 102.401 195.69 100.007C201.463 96.6958 206.327 83.9999 206.327 83.9999C206.327 83.9999 192.708 81.9136 186.919 85.2322ZM199.942 124.352C199.582 125.004 206.258 125.628 206.275 126.348C206.275 127.217 199.706 128.088 200.215 128.815C201.49 130.665 204.221 131.921 207.362 131.907C211.71 131.86 218.601 126.246 218.601 126.246C218.601 126.246 211.606 120.726 207.257 120.77C203.916 120.804 201.078 122.302 199.942 124.352ZM216.885 95.8955C213.338 96.5519 210.621 98.6479 209.805 101.061C209.547 101.813 216.766 101.242 216.917 102.01C217.086 102.916 210.262 105.07 210.934 105.756C212.648 107.476 215.798 108.328 219.117 107.715C223.726 106.866 230 99.6191 230 99.6191C230 99.6191 221.506 95.0414 216.885 95.8955ZM127.458 125.087C130.606 126.602 135.222 126.236 139.397 123.842C145.169 120.524 150.024 107.825 150.024 107.825C150.024 107.825 136.41 105.746 130.62 109.062C126.188 111.622 123.573 115.724 123.662 119.34C123.68 120.458 133.064 116.295 133.639 117.244C134.322 118.393 126.225 124.499 127.458 125.087ZM149.94 70.5329C150.314 71.5846 157.92 64.7547 158.771 65.4989C159.788 66.3701 153.998 74.6469 155.357 74.8177C158.838 75.3058 163.117 73.5611 166.327 70.0034C170.775 65.1061 171.402 51.561 171.402 51.561C171.402 51.561 157.786 53.7083 153.338 58.6227C149.922 62.4122 148.719 67.1143 149.94 70.5329ZM194.222 65.4965C195.221 66.3676 189.449 74.6445 190.808 74.8153C194.279 75.3033 198.568 73.5586 201.778 70.001C206.208 65.1036 206.836 51.5585 206.836 51.5585C206.836 51.5585 193.219 53.7132 188.772 58.6276C185.376 62.4097 184.173 67.1192 185.376 70.5402C185.748 71.5846 193.371 64.7547 194.222 65.4965ZM150.619 42.1446C151.636 43.0255 145.847 51.2926 147.199 51.4805C150.676 51.9612 154.965 50.2067 158.175 46.6661C162.623 41.7615 163.251 28.2091 163.251 28.2091C163.251 28.2091 149.635 30.3637 145.187 35.2781C141.766 39.0529 140.57 43.7624 141.791 47.181C142.165 48.2229 149.771 41.4003 150.619 42.1446ZM121.598 45.9829C122.975 46.649 123.771 33.0795 125.267 33.0063C127.083 32.9112 129.415 46.1927 130.908 45.0947C134.679 42.3593 137.122 36.7226 136.8 30.3637C136.41 21.5695 124.096 8 124.096 8C124.096 8 113.087 22.6309 113.516 31.4569C113.844 38.2209 117.193 43.838 121.598 45.9829ZM112.638 74.1467C113.759 74.4151 112.107 64.4106 113.194 64.1178C114.481 63.7665 118.373 73.0535 119.249 72.0385C121.578 69.4202 122.407 64.9572 121.172 60.3722C119.423 54.0304 108.235 46.0927 108.235 46.0927C108.235 46.0927 102.629 58.486 104.385 64.8352C105.725 69.7155 109.074 73.2805 112.638 74.1467ZM52.4653 82.8287C57.3248 84.4611 62.1943 83.7169 64.9305 81.2914C65.7665 80.5349 56.412 76.2867 56.7766 75.2374C57.2058 73.9808 67.2028 76.0061 66.8282 74.7079C65.9426 71.3625 62.6384 68.166 58.0814 66.6409C51.7434 64.5034 38.8093 69.2079 38.8093 69.2079C38.8093 69.2079 46.1346 80.7082 52.4653 82.8287ZM20.651 70.262C25.5106 71.8872 30.3751 71.1503 33.1162 68.7223C33.9398 67.9708 24.6051 63.7201 24.9623 62.6611C25.3865 61.4044 35.3835 63.4468 35.0263 62.1389C34.1134 58.8033 30.8191 55.614 26.2746 54.0767C19.9366 51.9465 7 56.6413 7 56.6413C7 56.6413 14.3055 68.1391 20.651 70.262ZM52.108 133.066C52.6563 132.075 42.4013 131.106 42.4013 129.989C42.3665 128.661 52.5025 127.329 51.7186 126.236C49.744 123.381 45.5567 121.429 40.7343 121.463C34.0415 121.505 23.3995 130.145 23.3995 130.145C23.3995 130.145 34.1606 138.62 40.8534 138.571C46.0007 138.517 50.3468 136.248 52.108 133.066ZM37.6955 99.7924C38.2437 98.8212 27.9838 97.8378 27.9689 96.7324C27.9515 95.4026 38.0701 94.0727 37.2887 92.9795C35.3141 90.1075 31.1416 88.1652 26.3168 88.1994C19.624 88.2457 8.98204 96.8813 8.98204 96.8813C8.98204 96.8813 19.7456 105.358 26.4408 105.295C31.5683 105.258 35.9318 102.974 37.6955 99.7924ZM62.8294 57.8272C63.9655 57.732 59.1084 48.8061 60.0436 48.1741C61.1475 47.4103 67.8874 54.9723 68.3811 53.7156C69.7231 50.5093 69.026 46.0097 66.3296 42.0762C62.5739 36.6323 49.3843 32.7306 49.3843 32.7306C49.3843 32.7306 48.1787 46.2342 51.9518 51.6708C54.8119 55.8605 59.158 58.1713 62.8294 57.8272ZM93.3984 57.8272C94.5395 57.732 89.6799 48.8061 90.6176 48.1741C91.7215 47.4103 98.4564 54.9723 98.9525 53.7156C100.272 50.5093 99.5975 46.0097 96.9035 42.0762C93.1478 36.6323 79.9582 32.7306 79.9582 32.7306C79.9582 32.7306 78.7526 46.2342 82.5207 51.6708C85.3859 55.8605 89.732 58.1713 93.3984 57.8272ZM122.965 75.7523C121.722 82.3236 123.662 88.4751 127.415 91.5106C128.574 92.45 132.436 79.5906 133.895 79.8542C135.644 80.1787 134.88 93.4432 136.552 92.7258C140.806 90.9225 144.423 86.0618 145.601 79.8834C147.238 71.3406 138.487 55.5701 138.487 55.5701C138.487 55.5701 124.592 67.1924 122.965 75.7523ZM86.0805 88.8753C90.0371 94.3143 95.8765 97.2302 100.704 96.6739C102.18 96.5128 95.4523 84.8295 96.6803 83.9853C98.119 82.9677 107.292 92.7233 107.937 91.0372C109.572 86.7768 108.51 80.8448 104.814 75.723C99.6868 68.6467 82.1015 63.8811 82.1015 63.8811C82.1015 63.8811 80.9455 81.7843 86.0805 88.8753ZM68.6862 123.842C77.3957 124.799 85.2916 121.805 88.9059 116.761C90.0445 115.219 72.8413 111.49 73.0472 109.611C73.2977 107.352 90.7391 107.122 89.6526 105.07C86.9065 99.8534 80.1964 95.7174 71.9954 94.7999C60.6712 93.5334 40.8385 106.056 40.8385 106.056C40.8385 106.056 57.3397 122.581 68.6862 123.842ZM89.6724 137.114C87.807 133.561 83.255 130.765 77.686 130.135C69.9736 129.271 56.4938 137.802 56.4938 137.802C56.4938 137.802 67.6964 149.027 75.4261 149.876C81.3375 150.537 86.6982 148.504 89.1614 145.064C89.9255 144.019 78.2441 141.474 78.3805 140.206C78.5418 138.678 90.4017 138.517 89.6724 137.114Z" fill="#834C1F"/>
</g>
<defs>
<clipPath id="clip0_335_43">
<rect width="230.018" height="225.836" fill="white"/>
</clipPath>
</defs>
</svg>
